{"title":"Nobel.Son.2007.DVDRIP.XviD-ZEKTORM","uid":4747200,"size":742730692,"categoryP":"video","categoryS":"movies","magnet":"?xt=urn:btih:0e682d840001a734410dfd726a4bdfcc1c81ea80&amp;dn=Nobel.Son.2007.DVDRIP.XviD-ZEKTORM&amp;tr=udp%3A%2F%2Ftracker.openbittorrent.com%3A80&amp;tr=udp%3A%2F%2Fopen.demonii.com%3A1337&amp;tr=udp%3A%2F%2Ftracker.coppersurfer.tk%3A6969&amp;tr=udp%3A%2F%2Fexodus.desync.com%3A6969","seeders":1,"leechers":2,"uploader":"blowley","files":4,"time":1235943276,"description":"Title                            : Nobel Son\nYear                             : 2007\nGenre                            : Comedy | Crime | Drama | Thriller\niMDB Rate                        : User Rating: 7.8/10   629 votes\niMDB URL                         : http://www.imdb.com/title/tt0483756/\n\nComplete name                    : Nobel.Son.2007.DVDRIP.XviD-ZEKTORM.avi\nFormat                           : AVI\nFile size                        : 701 MiB\nDuration                         : 1h 50mn\nOverall bit rate                 : 888 Kbps\nSubtitles                        : English, Spanish (Format: VobSub)\nSource                           : DVD NTSC\n\nVideo\nFormat                           : MPEG-4 Visual\nFormat profile                   : Streaming Video@L1\nCodec ID                         : DX50\nCodec ID/Hint                    : DivX 5\nDuration                         : 1h 50mn\nBit rate                         : 753 Kbps\nWidth                            : 720 pixels\nHeight                           : 304 pixels\nDisplay aspect ratio             : 2.35\nFrame rate                       : 23.976 fps\nResolution                       : 24 bits\nColorimetry                      : 4:2:0\nScan type                        : Progressive\nBits/(Pixel*Frame)               : 0.144\nStream size                      : 594 MiB (85%)\nWriting library                  : XviD\n\nAudio\nFormat                           : MPEG Audio\nFormat version                   : Version 1\nFormat profile                   : Layer 3\nCodec ID                         : 55\nCodec ID/Hint                    : MP3\nDuration                         : 1h 50mn\nBit rate mode                    : Constant\nBit rate                         : 128 Kbps\nMinimum bit rate                 : 128 Kbps\nChannel(s)                       : 2 channels\nSampling rate                    : 48.0 KHz\nResolution                       : 16 bits\nStream size                      : 101 MiB (14%)\nWriting library                  : LAME3.98r\nEncoding settings                : CBR\n","torrent":{"xt":"urn:btih:0e682d840001a734410dfd726a4bdfcc1c81ea80","amp;dn":"Nobel.Son.2007.DVDRIP.XviD-ZEKTORM","amp;tr":["udp%3A%2F%2Ftracker.openbittorrent.com%3A80","udp%3A%2F%2Fopen.demonii.com%3A1337","udp%3A%2F%2Ftracker.coppersurfer.tk%3A6969","udp%3A%2F%2Fexodus.desync.com%3A6969"],"infoHash":"0e682d840001a734410dfd726a4bdfcc1c81ea80","infoHashBuffer":{"type":"Buffer","data":[14,104,45,132,0,1,167,52,65,13,253,114,106,75,223,204,28,129,234,128]},"announce":[],"urlList":[]}}